<svg xmlns="http://www.w3.org/2000/svg" viewBox="0 0 512 512" width="512" height="512"><defs><style>.a{fill:#ff9800}.b{fill:#ccc}</style></defs><ellipse class="a" cx="214.917" cy="260.845" rx="15.335" ry="15.793"/><path class="a" d="M114.439 335.23c-8.524 11.365-19.22 22.418-25.634 35.247-4.194 8.387-8.193 17.805-14.649 24.261-3.611 3.611.955 12.452-2.157 15.564-1.204 1.203-.908 4.569-1.827 6.408-9.575 19.15-4.476 42.267 6.408 58.593 8.223 12.334 24.992 19.317 42.572 21.515 7.84.98 17.123-1.441 24.718.457 21.317 5.33 47.589 7.95 69.579 5.951 7.863-.715 18.65 2.481 26.092 0 8.682-2.894 18.203-6.307 28.381-5.035 19.848 2.481 40.074-3.075 59.508-.916 7.3.812 16.878 3.033 24.262 5.494 10.376 3.458 24.895-4.795 33.873-6.867 7.696-1.776 15.651-1.347 23.346-2.746.661-.121 6.156.711 6.866.001 4.587-4.586 15.196-6.956 19.684-11.444 6.984-6.986 9.254-14.388 13.733-23.346 9.494-18.989-1.072-39.835-6.867-57.219-2.002-6.008-1.703-12.103-4.577-17.853-3.739-7.478-14.409-10.687-20.142-17.852-6.79-8.488-4.784-21.485-10.986-29.754-5.006-6.676-14.324-14.002-17.394-20.142-1.828-3.654-2.796-7.831-5.494-10.528-.738-.739-10.084-.842-10.528-.915-9.561-1.594-20.418-.916-30.212-.916-10.605 0-28.038-2.403-37.994.916-14.541 4.847-32.55 10.553-45.317 16.936-2.192 1.097-6.28-.348-8.698.458-8.33 2.777-23.21 12.032-33.416 12.817-17.628 1.356-35.732 3.662-53.1 3.662-8.361 0-16.938-2.743-19.683 5.494-.315.944-7.817-1.227-8.697-1.374-6.276-1.046-24.262-13.589-24.262-.457z"/><g transform="scale(.1 -.1) translate(0 -5120)" fill="#000" stroke="none"><path class="b" d="M1834 5096c-112-52-174-151-174-276 1-119 49-207 146-261l54-31 0-595 0-594-636-1131c-350-622-654-1167-675-1212-91-190-91-398-1-588 95-201 254-336 458-388 75-19 117-20 1554-20 1437 0 1479 1 1554 20 204 52 363 187 458 388 90 190 90 398-1 588-21 45-325 590-675 1212l-636 1131 0 594 0 595 54 31c97 54 145 142 146 261 0 125-62 224-174 276l-51 24-675 0-675 0-51-24z m1335-182c107-22 107-166 0-188-18-3-82-6-144-6-108 0-113-1-139-26-21-21-26-36-26-74 0-38 5-53 26-74 24-23 34-26 100-26l74 0 0-630 0-629 294-523 295-523-192-7c-330-11-505-56-864-222-288-133-453-175-728-183-141-4-204-2-290 11-116 18-264 53-279 66-4 5 165 317 378 695l386 686 0 629 0 630 74 0c66 0 76 3 100 26 21 21 26 36 26 74 0 38-5 53-26 74-26 25-31 26-139 26-138 0-168 6-200 38-49 48-20 142 48 155 35 7 1192 8 1226 1z m596-2931c23-12 604-1039 636-1123 29-77 35-190 14-270-46-177-170-309-340-363l-70-22-1445 0-1445 0-70 22c-170 54-294 186-340 363-21 80-15 193 14 270 11 28 118 227 238 441 190 339 221 389 238 384 271-74 405-95 613-95 209 0 359 21 550 76 114 33 187 62 362 145 170 80 347 140 480 163 52 8 106 18 120 20 50 9 425-1 445-11z"/><path class="b" d="M2486 3374c-21-21-26-36-26-74 0-38 5-53 26-74 21-21 36-26 74-26 38 0 53 5 74 26 21 21 26 36 26 74 0 38-5 53-26 74-21 21-36 26-74 26-38 0-53-5-74-26z"/><path class="b" d="M2034 2776c-112-52-174-151-174-276 0-176 124-300 300-300 176 0 300 124 300 300 0 176-124 300-300 300-58 0-87-6-126-24z m190-212c19-19 26-37 26-64 0-27-7-45-26-64-58-57-154-17-154 64 0 27 7 45 26 64 19 19 37 26 64 26 27 0 45-7 64-26z"/><path class="b" d="M2886 2774c-21-21-26-36-26-74 0-38 5-53 26-74 21-21 36-26 74-26 38 0 53 5 74 26 21 21 26 36 26 74 0 38-5 53-26 74-21 21-36 26-74 26-38 0-53-5-74-26z"/><path class="b" d="M1286 774c-21-21-26-36-26-74 0-66 34-100 100-100 66 0 100 34 100 100 0 38-5 53-26 74-21 21-36 26-74 26-38 0-53-5-74-26z"/><path class="b" d="M1686 774c-21-21-26-36-26-74 0-38 5-53 26-74l27-26 1047 0 1047 0 27 26c21 21 26 36 26 74 0 38-5 53-26 74l-27 26-1047 0-1047 0-27-26z"/></g></svg>