<?xml version="1.0" encoding="utf-8"?>
<svg version="1.0" xmlns="http://www.w3.org/2000/svg" width="512.000000pt" height="512.000000pt" viewBox="0 0 512.000000 512.000000" preserveAspectRatio="xMidYMid meet">
  <ellipse style="stroke: rgb(0, 0, 0); fill: rgb(255, 152, 0);" cx="214.917" cy="260.845" rx="15.335" ry="15.793"/>
  <path style="stroke: rgb(0, 0, 0); fill: rgb(255, 152, 0);" d="M 114.439 335.23 C 105.915 346.595 95.219 357.648 88.805 370.477 C 84.611 378.864 80.612 388.282 74.156 394.738 C 70.545 398.349 74.98 407.19 71.868 410.302 C 70.664 411.505 70.956 414.871 70.037 416.71 C 60.462 435.86 65.561 458.977 76.445 475.303 C 84.668 487.637 101.437 494.62 119.017 496.818 C 126.857 497.798 136.14 495.377 143.735 497.275 C 165.052 502.605 191.324 505.225 213.314 503.226 C 221.177 502.511 231.964 505.707 239.406 503.226 C 248.088 500.332 257.609 496.919 267.787 498.191 C 287.635 500.672 307.861 495.116 327.295 497.275 C 334.595 498.087 344.173 500.308 351.557 502.769 C 361.933 506.227 376.452 497.974 385.43 495.902 C 393.126 494.126 401.081 494.555 408.776 493.156 C 409.437 493.035 414.932 493.866 415.642 493.156 C 420.229 488.57 430.838 486.2 435.326 481.712 C 442.31 474.726 444.58 467.324 449.059 458.366 C 458.553 439.377 447.987 418.531 442.192 401.147 C 440.19 395.139 440.489 389.044 437.615 383.294 C 433.876 375.816 423.206 372.607 417.473 365.442 C 410.683 356.954 412.689 343.957 406.487 335.688 C 401.481 329.012 392.163 321.686 389.093 315.546 C 387.265 311.892 386.297 307.715 383.599 305.018 C 382.861 304.279 373.515 304.176 373.071 304.103 C 363.51 302.509 352.653 303.187 342.859 303.187 C 332.254 303.187 314.821 300.784 304.865 304.103 C 290.324 308.95 272.315 314.656 259.548 321.039 C 257.356 322.136 253.268 320.691 250.85 321.497 C 242.52 324.274 227.64 333.529 217.434 334.314 C 199.806 335.67 181.702 337.976 164.334 337.976 C 155.973 337.976 147.396 335.233 144.651 343.47 C 144.336 344.414 136.834 342.243 135.954 342.096 C 129.678 341.05 111.692 328.507 111.692 341.639"/>
  <g transform="translate(0.000000,512.000000) scale(0.100000,-0.100000)" fill="#000000" stroke="none">
    <path d="M1834 5096 c-112 -52 -174 -151 -174 -276 1 -119 49 -207 146 -261 l54 -31 0 -595 0 -594 -636 -1131 c-350 -622 -654 -1167 -675 -1212 -91 -190 -91 -398 -1 -588 95 -201 254 -336 458 -388 75 -19 117 -20 1554 -20 1437 0 1479 1 1554 20 204 52 363 187 458 388 90 190 90 398 -1 588 -21 45 -325 590 -675 1212 l-636 1131 0 594 0 595 54 31 c97 54 145 142 146 261 0 125 -62 224 -174 276 l-51 24 -675 0 -675 0 -51 -24z m1335 -182 c107 -22 107 -166 0 -188 -18 -3 -82 -6 -144 -6 -108 0 -113 -1 -139 -26 -21 -21 -26 -36 -26 -74 0 -38 5 -53 26 -74 24 -23 34 -26 100 -26 l74 0 0 -630 0 -629 294 -523 295 -523 -192 -7 c-330 -11 -505 -56 -864 -222 -288 -133 -453 -175 -728 -183 -141 -4 -204 -2 -290 11 -116 18 -264 53 -279 66 -4 5 165 317 378 695 l386 686 0 629 0 630 74 0 c66 0 76 3 100 26 21 21 26 36 26 74 0 38 -5 53 -26 74 -26 25 -31 26 -139 26 -138 0 -168 6 -200 38 -49 48 -20 142 48 155 35 7 1192 8 1226 1z m596 -2931 c23 -12 604 -1039 636 -1123 29 -77 35 -190 14 -270 -46 -177 -170 -309 -340 -363 l-70 -22 -1445 0 -1445 0 -70 22 c-170 54 -294 186 -340 363 -21 80 -15 193 14 270 11 28 118 227 238 441 190 339 221 389 238 384 271 -74 405 -95 613 -95 209 0 359 21 550 76 114 33 187 62 362 145 170 80 347 140 480 163 52 8 106 18 120 20 50 9 425 -1 445 -11z" style="fill-rule: nonzero; paint-order: fill; fill: rgb(204, 204, 204);"/>
    <path d="M2486 3374 c-21 -21 -26 -36 -26 -74 0 -38 5 -53 26 -74 21 -21 36 -26 74 -26 38 0 53 5 74 26 21 21 26 36 26 74 0 38 -5 53 -26 74 -21 21 -36 26 -74 26 -38 0 -53 -5 -74 -26z" style="fill: rgb(204, 204, 204);"/>
    <path d="M2034 2776 c-112 -52 -174 -151 -174 -276 0 -176 124 -300 300 -300 176 0 300 124 300 300 0 176 -124 300 -300 300 -58 0 -87 -6 -126 -24z m190 -212 c19 -19 26 -37 26 -64 0 -27 -7 -45 -26 -64 -58 -57 -154 -17 -154 64 0 27 7 45 26 64 19 19 37 26 64 26 27 0 45 -7 64 -26z" style="fill: rgb(204, 204, 204);"/>
    <path d="M2886 2774 c-21 -21 -26 -36 -26 -74 0 -38 5 -53 26 -74 21 -21 36 -26 74 -26 38 0 53 5 74 26 21 21 26 36 26 74 0 38 -5 53 -26 74 -21 21 -36 26 -74 26 -38 0 -53 -5 -74 -26z" style="fill: rgb(204, 204, 204);"/>
    <path d="M1286 774 c-21 -21 -26 -36 -26 -74 0 -66 34 -100 100 -100 66 0 100 34 100 100 0 38 -5 53 -26 74 -21 21 -36 26 -74 26 -38 0 -53 -5 -74 -26z" style="fill: rgb(204, 204, 204);"/>
    <path d="M1686 774 c-21 -21 -26 -36 -26 -74 0 -38 5 -53 26 -74 l27 -26 1047 0 1047 0 27 26 c21 21 26 36 26 74 0 38 -5 53 -26 74 l-27 26 -1047 0 -1047 0 -27 -26z" style="fill: rgb(204, 204, 204);"/>
  </g>
</svg>